# xmcd CD database file
#
# Track frame offsets:
#	150
#	15755
#	30562
#	41502
#	56096
#	70720
#	83019
#	98009
#	110763
#	122469
#	135993
#	149884
#	164409
#	177111
#	191768
#	205501
#	220097
#	232720
#	246295
#	258413
#
# Disc length: 3593 seconds
#
# Revision: 0
# Processed by: cddbd v1.5.2PL0 Copyright (c) Steve Scherf et al.
# Submitted via: CDex 1.70beta2
#
DISCID=080e0714
DTITLE=Various Artist - Jazz Roads CD148 - Swing - Django Reinhardt Vol.3 (1937)
DYEAR=2006
DGENRE=Jazz
TTITLE0=Eddie South - Somebody Loves Me
TTITLE1=Eddie South - I Can't Believe That You're In Love With Me
TTITLE2=Eddie South - Interpretation Swing J.S. Bach, Part 1
TTITLE3=Le Quintette Du Hot Club De France - Minor Swing
TTITLE4=Le Quintette Du Hot Club De France - Viper's Dream
TTITLE5=Eddie South - Fiddle's Blues
TTITLE6=Eddie South - Improvisation J.S. Bach Part 2
TTITLE7=Le Quintette Du Hot Club De France - Swinging With Django
TTITLE8=Le Quintette Du Hot Club De France - Paramount Stomp
TTITLE9=Le Quintette Du Hot Club De France - My Serenade
TTITLE10=Django Reinhardt - You Rascal You
TTITLE11=Michel Warlop - Tea For Two
TTITLE12=Michel Warlop - Christmas Swing
TTITLE13=Stephane Grappelli - Stephen's Blues
TTITLE14=Stephane Grappelli - Sugar
TTITLE15=Django Reinhardt - Sweet Georgia Brown
TTITLE16=Django Reinhardt - Tea For Two
TTITLE17=Philippe Brun - Blues
TTITLE18=Philippe Brun 'Jam' Band  - It Had To Be You
TTITLE19=Michel Warlop - Sweet Sue
EXTD=YEAR: 2006
EXTT0=
EXTT1=
EXTT2=
EXTT3=
EXTT4=
EXTT5=
EXTT6=
EXTT7=
EXTT8=
EXTT9=
EXTT10=
EXTT11=
EXTT12=
EXTT13=
EXTT14=
EXTT15=
EXTT16=
EXTT17=
EXTT18=
EXTT19=
PLAYORDER=
